# xmcd
#
# Track frame offsets: 
#        150
#        22715
#        39432
#        52510
#        73182
#        91337
#        107227
#        124787
#        146207
#        161500
#
# Disc length: 2400 seconds
#
# Revision: 3
# Processed by: cddbd v1.5.2PL0 Copyright (c) Steve Scherf et al.
# Submitted via: ExactAudioCopy v0.95b4
#
DISCID=7c095e0a
DTITLE=Julio Iglesias - Zärtlichkeiten
DYEAR=1981
DGENRE=Blues
TTITLE0=Mit Tränen in den Augen ist man blind (Hey)
TTITLE1=Ich habe gelacht, ich hab geweint (un jour tu ris, un jour tu 
TTITLE1=pleures)
TTITLE2=Eine Rose, die nie welkt (Por un poco de tu amor)
TTITLE3=Amigo, ich wollt' immer ein Adler sein (Gavilan o paloma)
TTITLE4=Bleib bei mir bis zum Morgen (Para que no me olvides)
TTITLE5=Wo bist du (Como tu)
TTITLE6=Du bist mein erster Gedanke (Quiereme mucho)
TTITLE7=Aber der Traum war sehr schön (When They Begin The Beguine)
TTITLE8=Island In The Sun (Wo meine Sonne scheint)
TTITLE9=Sie war da (Jurame)
EXTD=YEAR: 1981
EXTT0=
EXTT1=
EXTT2=
EXTT3=
EXTT4=
EXTT5=
EXTT6=
EXTT7=
EXTT8=
EXTT9=
PLAYORDER=
